<svg width="100%" height="100%" viewBox="0 0 64 64" fill="none" xmlns="http://www.w3.org/2000/svg">
    <path d="M32 0C14.3241 0 0 14.3279 0 32C0 49.6741 14.3259 64 32 64C49.6721 64 63.998 49.6741 63.998 32C63.998 14.3299 49.6721 0 32 0ZM32 57.9999C17.6401 57.9999 6.0001 46.3599 6.0001 32C6.0001 17.6401 17.6421 6.0001 32 6.0001C46.3579 6.0001 57.9979 17.6401 57.9979 32C57.9979 46.3599 46.3581 57.9999 32 57.9999ZM44.5761 18.388C43.216 17.5761 41.4781 18.058 40.6961 19.468L29.966 38.742L23.9901 31.468C22.9081 30.222 21.4702 29.5761 20.1121 30.388C18.752 31.2019 18.19 33.1601 19.0702 34.4161L27.3862 44.5381C28.0081 45.346 28.7181 45.8301 29.4602 45.9682L29.4662 45.9802L29.5423 45.9843C29.7103 46.0102 32.2224 46.4742 33.3044 44.5383L45.6205 22.4164C46.402 21.0039 45.9362 19.202 44.5761 18.388Z" fill="#B3D138"/>
</svg>